# xmcd CD database file
#
# Track frame offsets:
#	150
#	21761
#	36515
#	56183
#	69187
#	87457
#	106183
#	117779
#	135156
#	142165
#	170842
#	187374
#	202933
#	217130
#	229218
#	240657
#
# Disc length: 3423 seconds
#
# Revision: 0
# Processed by: cddbd v1.5.1PL0 Copyright (c) Steve Scherf et al.
# Submitted via: CDex 1.51
#
DISCID=f20d5d10
DTITLE=Bluesbreakers - Blues Breakers CD3
DYEAR=2000
DGENRE=Blues
TTITLE0=Still Got The Blues
TTITLE1=Some Kind of Wonderful
TTITLE2=Pretty Woman
TTITLE3=I've got the Blues for You
TTITLE4=Peaches and Diesel
TTITLE5=When Loves Comes To Town
TTITLE6=Rollin' And Tumblin'
TTITLE7=Crossroads
TTITLE8=Jigsaw Puzzle Blues
TTITLE9=Big Log
TTITLE10=I Need All Your Lovin'
TTITLE11=Don't Leave Me, Baby
TTITLE12=I'm Burning
TTITLE13=Dust My Blues
TTITLE14=How Many More Nights
TTITLE15=Stay With Me
EXTD=YEAR: 2000
EXTT0=
EXTT1=
EXTT2=
EXTT3=
EXTT4=
EXTT5=
EXTT6=
EXTT7=
EXTT8=
EXTT9=
EXTT10=
EXTT11=
EXTT12=
EXTT13=
EXTT14=
EXTT15=
PLAYORDER=
